<?xml version="1.0" encoding="UTF-8" standalone="no"?>
<!DOCTYPE svg PUBLIC "-//W3C//DTD SVG 1.1//EN"
 "http://www.w3.org/Graphics/SVG/1.1/DTD/svg11.dtd">
<!-- Generated by graphviz version 2.38.0 (20140413.2041)
 -->
<!-- Title: %3 Pages: 1 -->
<svg width="1521pt" height="260pt"
 viewBox="0.00 0.00 1520.67 260.00" xmlns="http://www.w3.org/2000/svg" xmlns:xlink="http://www.w3.org/1999/xlink">
<g id="graph0" class="graph" transform="scale(1 1) rotate(0) translate(4 256)">
<title>%3</title>
<polygon fill="white" stroke="none" points="-4,4 -4,-256 1516.67,-256 1516.67,4 -4,4"/>
<!-- [root] aws_instance.example2 -->
<g id="node1" class="node"><title>[root] aws_instance.example2</title>
<polygon fill="none" stroke="black" points="838.23,-108 652.23,-108 652.23,-72 838.23,-72 838.23,-108"/>
<text text-anchor="middle" x="745.23" y="-86.3" font-family="Times,serif" font-size="14.00">aws_instance.example2</text>
</g>
<!-- [root] local.default_name -->
<g id="node2" class="node"><title>[root] local.default_name</title>
<polygon fill="none" stroke="black" points="224.23,-36 78.2301,-36 78.2301,-0 230.23,-0 230.23,-30 224.23,-36"/>
<polyline fill="none" stroke="black" points="224.23,-36 224.23,-30 "/>
<polyline fill="none" stroke="black" points="230.23,-30 224.23,-30 "/>
<text text-anchor="middle" x="154.23" y="-14.3" font-family="Times,serif" font-size="14.00">local.default_name</text>
</g>
<!-- [root] aws_instance.example2&#45;&gt;[root] local.default_name -->
<g id="edge1" class="edge"><title>[root] aws_instance.example2&#45;&gt;[root] local.default_name</title>
<path fill="none" stroke="black" d="M652.103,-81.8594C552.622,-73.6372 390.159,-58.5054 240.894,-36.1783"/>
<polygon fill="black" stroke="black" points="241.037,-32.6604 230.626,-34.6279 239.992,-39.5819 241.037,-32.6604"/>
</g>
<!-- [root] provider.aws -->
<g id="node3" class="node"><title>[root] provider.aws</title>
<polygon fill="none" stroke="black" points="347.23,-36 248.192,-18 347.23,-3.55271e-15 446.269,-18 347.23,-36"/>
<text text-anchor="middle" x="347.23" y="-14.3" font-family="Times,serif" font-size="14.00">provider.aws</text>
</g>
<!-- [root] aws_instance.example2&#45;&gt;[root] provider.aws -->
<g id="edge2" class="edge"><title>[root] aws_instance.example2&#45;&gt;[root] provider.aws</title>
<path fill="none" stroke="black" d="M652.168,-72.6323C575.628,-59.1704 469.575,-40.5179 404.83,-29.1307"/>
<polygon fill="black" stroke="black" points="405.26,-25.6526 394.805,-27.3674 404.047,-32.5468 405.26,-25.6526"/>
</g>
<!-- [root] var.instance_type -->
<g id="node4" class="node"><title>[root] var.instance_type</title>
<polygon fill="none" stroke="black" points="601.73,-36 464.73,-36 464.73,-0 607.73,-0 607.73,-30 601.73,-36"/>
<polyline fill="none" stroke="black" points="601.73,-36 601.73,-30 "/>
<polyline fill="none" stroke="black" points="607.73,-30 601.73,-30 "/>
<text text-anchor="middle" x="536.23" y="-14.3" font-family="Times,serif" font-size="14.00">var.instance_type</text>
</g>
<!-- [root] aws_instance.example2&#45;&gt;[root] var.instance_type -->
<g id="edge5" class="edge"><title>[root] aws_instance.example2&#45;&gt;[root] var.instance_type</title>
<path fill="none" stroke="black" d="M694.37,-71.9656C665.041,-62.1425 627.978,-49.7291 597.106,-39.3891"/>
<polygon fill="black" stroke="black" points="597.912,-35.968 587.318,-36.1108 595.689,-42.6056 597.912,-35.968"/>
</g>
<!-- [root] var.key_name -->
<g id="node5" class="node"><title>[root] var.key_name</title>
<polygon fill="none" stroke="black" points="734.73,-36 625.73,-36 625.73,-0 740.73,-0 740.73,-30 734.73,-36"/>
<polyline fill="none" stroke="black" points="734.73,-36 734.73,-30 "/>
<polyline fill="none" stroke="black" points="740.73,-30 734.73,-30 "/>
<text text-anchor="middle" x="683.23" y="-14.3" font-family="Times,serif" font-size="14.00">var.key_name</text>
</g>
<!-- [root] aws_instance.example2&#45;&gt;[root] var.key_name -->
<g id="edge6" class="edge"><title>[root] aws_instance.example2&#45;&gt;[root] var.key_name</title>
<path fill="none" stroke="black" d="M729.904,-71.6966C722.471,-63.3046 713.407,-53.0705 705.25,-43.8613"/>
<polygon fill="black" stroke="black" points="707.63,-41.2696 698.38,-36.1043 702.39,-45.9109 707.63,-41.2696"/>
</g>
<!-- [root] var.pvt_key -->
<g id="node6" class="node"><title>[root] var.pvt_key</title>
<polygon fill="none" stroke="black" points="851.73,-36 758.73,-36 758.73,-0 857.73,-0 857.73,-30 851.73,-36"/>
<polyline fill="none" stroke="black" points="851.73,-36 851.73,-30 "/>
<polyline fill="none" stroke="black" points="857.73,-30 851.73,-30 "/>
<text text-anchor="middle" x="808.23" y="-14.3" font-family="Times,serif" font-size="14.00">var.pvt_key</text>
</g>
<!-- [root] aws_instance.example2&#45;&gt;[root] var.pvt_key -->
<g id="edge7" class="edge"><title>[root] aws_instance.example2&#45;&gt;[root] var.pvt_key</title>
<path fill="none" stroke="black" d="M760.803,-71.6966C768.432,-63.2198 777.753,-52.8636 786.106,-43.5826"/>
<polygon fill="black" stroke="black" points="788.748,-45.8787 792.836,-36.1043 783.545,-41.1959 788.748,-45.8787"/>
</g>
<!-- [root] var.sg_id -->
<g id="node7" class="node"><title>[root] var.sg_id</title>
<polygon fill="none" stroke="black" points="950.23,-36 876.23,-36 876.23,-0 956.23,-0 956.23,-30 950.23,-36"/>
<polyline fill="none" stroke="black" points="950.23,-36 950.23,-30 "/>
<polyline fill="none" stroke="black" points="956.23,-30 950.23,-30 "/>
<text text-anchor="middle" x="916.23" y="-14.3" font-family="Times,serif" font-size="14.00">var.sg_id</text>
</g>
<!-- [root] aws_instance.example2&#45;&gt;[root] var.sg_id -->
<g id="edge8" class="edge"><title>[root] aws_instance.example2&#45;&gt;[root] var.sg_id</title>
<path fill="none" stroke="black" d="M787.061,-71.8761C811.084,-62.0421 841.394,-49.6345 866.615,-39.3103"/>
<polygon fill="black" stroke="black" points="868.08,-42.4927 876.008,-35.4651 865.428,-36.0145 868.08,-42.4927"/>
</g>
<!-- [root] provisioner.file -->
<g id="node8" class="node"><title>[root] provisioner.file</title>
<ellipse fill="none" stroke="black" cx="1083.23" cy="-18" rx="108.581" ry="18"/>
<text text-anchor="middle" x="1083.23" y="-14.3" font-family="Times,serif" font-size="14.00">[root] provisioner.file</text>
</g>
<!-- [root] aws_instance.example2&#45;&gt;[root] provisioner.file -->
<g id="edge3" class="edge"><title>[root] aws_instance.example2&#45;&gt;[root] provisioner.file</title>
<path fill="none" stroke="black" d="M827.482,-71.9656C882.555,-60.5599 954.49,-45.6621 1008.04,-34.5726"/>
<polygon fill="black" stroke="black" points="1009.07,-37.9332 1018.15,-32.4779 1007.65,-31.0787 1009.07,-37.9332"/>
</g>
<!-- [root] provisioner.remote&#45;exec -->
<g id="node9" class="node"><title>[root] provisioner.remote&#45;exec</title>
<ellipse fill="none" stroke="black" cx="1361.23" cy="-18" rx="151.373" ry="18"/>
<text text-anchor="middle" x="1361.23" y="-14.3" font-family="Times,serif" font-size="14.00">[root] provisioner.remote&#45;exec</text>
</g>
<!-- [root] aws_instance.example2&#45;&gt;[root] provisioner.remote&#45;exec -->
<g id="edge4" class="edge"><title>[root] aws_instance.example2&#45;&gt;[root] provisioner.remote&#45;exec</title>
<path fill="none" stroke="black" d="M838.453,-78.4065C947.445,-66.0211 1127.89,-45.5161 1245.68,-32.1311"/>
<polygon fill="black" stroke="black" points="1246.27,-35.586 1255.81,-30.9792 1245.48,-28.6308 1246.27,-35.586"/>
</g>
<!-- [root] meta.count&#45;boundary (EachMode fixup) -->
<g id="node10" class="node"><title>[root] meta.count&#45;boundary (EachMode fixup)</title>
<ellipse fill="none" stroke="black" cx="224.23" cy="-162" rx="224.46" ry="18"/>
<text text-anchor="middle" x="224.23" y="-158.3" font-family="Times,serif" font-size="14.00">[root] meta.count&#45;boundary (EachMode fixup)</text>
</g>
<!-- [root] meta.count&#45;boundary (EachMode fixup)&#45;&gt;[root] aws_instance.example2 -->
<g id="edge9" class="edge"><title>[root] meta.count&#45;boundary (EachMode fixup)&#45;&gt;[root] aws_instance.example2</title>
<path fill="none" stroke="black" d="M333.766,-146.283C424.582,-134.081 552.775,-116.858 641.846,-104.89"/>
<polygon fill="black" stroke="black" points="642.521,-108.331 651.966,-103.531 641.589,-101.394 642.521,-108.331"/>
</g>
<!-- [root] provider.aws (close) -->
<g id="node11" class="node"><title>[root] provider.aws (close)</title>
<ellipse fill="none" stroke="black" cx="599.23" cy="-162" rx="132.677" ry="18"/>
<text text-anchor="middle" x="599.23" y="-158.3" font-family="Times,serif" font-size="14.00">[root] provider.aws (close)</text>
</g>
<!-- [root] provider.aws (close)&#45;&gt;[root] aws_instance.example2 -->
<g id="edge10" class="edge"><title>[root] provider.aws (close)&#45;&gt;[root] aws_instance.example2</title>
<path fill="none" stroke="black" d="M633.461,-144.588C653.431,-135.013 678.854,-122.824 700.406,-112.491"/>
<polygon fill="black" stroke="black" points="702.186,-115.519 709.69,-108.04 699.159,-109.207 702.186,-115.519"/>
</g>
<!-- [root] provisioner.file (close) -->
<g id="node12" class="node"><title>[root] provisioner.file (close)</title>
<ellipse fill="none" stroke="black" cx="891.23" cy="-162" rx="141.875" ry="18"/>
<text text-anchor="middle" x="891.23" y="-158.3" font-family="Times,serif" font-size="14.00">[root] provisioner.file (close)</text>
</g>
<!-- [root] provisioner.file (close)&#45;&gt;[root] aws_instance.example2 -->
<g id="edge11" class="edge"><title>[root] provisioner.file (close)&#45;&gt;[root] aws_instance.example2</title>
<path fill="none" stroke="black" d="M856.63,-144.411C836.724,-134.867 811.492,-122.769 790.077,-112.502"/>
<polygon fill="black" stroke="black" points="791.381,-109.246 780.851,-108.078 788.355,-115.558 791.381,-109.246"/>
</g>
<!-- [root] provisioner.remote&#45;exec (close) -->
<g id="node13" class="node"><title>[root] provisioner.remote&#45;exec (close)</title>
<ellipse fill="none" stroke="black" cx="1236.23" cy="-162" rx="185.467" ry="18"/>
<text text-anchor="middle" x="1236.23" y="-158.3" font-family="Times,serif" font-size="14.00">[root] provisioner.remote&#45;exec (close)</text>
</g>
<!-- [root] provisioner.remote&#45;exec (close)&#45;&gt;[root] aws_instance.example2 -->
<g id="edge12" class="edge"><title>[root] provisioner.remote&#45;exec (close)&#45;&gt;[root] aws_instance.example2</title>
<path fill="none" stroke="black" d="M1136.57,-146.792C1052.72,-134.837 933.253,-117.806 848.418,-105.711"/>
<polygon fill="black" stroke="black" points="848.902,-102.245 838.508,-104.298 847.914,-109.175 848.902,-102.245"/>
</g>
<!-- [root] root -->
<g id="node14" class="node"><title>[root] root</title>
<ellipse fill="none" stroke="black" cx="745.23" cy="-234" rx="58.4896" ry="18"/>
<text text-anchor="middle" x="745.23" y="-230.3" font-family="Times,serif" font-size="14.00">[root] root</text>
</g>
<!-- [root] root&#45;&gt;[root] meta.count&#45;boundary (EachMode fixup) -->
<g id="edge13" class="edge"><title>[root] root&#45;&gt;[root] meta.count&#45;boundary (EachMode fixup)</title>
<path fill="none" stroke="black" d="M692.407,-225.903C611.251,-214.999 453.786,-193.843 343.989,-179.091"/>
<polygon fill="black" stroke="black" points="344.227,-175.591 333.849,-177.728 343.294,-182.529 344.227,-175.591"/>
</g>
<!-- [root] root&#45;&gt;[root] provider.aws (close) -->
<g id="edge14" class="edge"><title>[root] root&#45;&gt;[root] provider.aws (close)</title>
<path fill="none" stroke="black" d="M714.979,-218.496C694.13,-208.5 666.1,-195.061 642.844,-183.911"/>
<polygon fill="black" stroke="black" points="644.066,-180.615 633.536,-179.448 641.04,-186.927 644.066,-180.615"/>
</g>
<!-- [root] root&#45;&gt;[root] provisioner.file (close) -->
<g id="edge15" class="edge"><title>[root] root&#45;&gt;[root] provisioner.file (close)</title>
<path fill="none" stroke="black" d="M775.481,-218.496C796.256,-208.535 824.163,-195.155 847.37,-184.029"/>
<polygon fill="black" stroke="black" points="849.159,-187.052 856.663,-179.573 846.133,-180.74 849.159,-187.052"/>
</g>
<!-- [root] root&#45;&gt;[root] provisioner.remote&#45;exec (close) -->
<g id="edge16" class="edge"><title>[root] root&#45;&gt;[root] provisioner.remote&#45;exec (close)</title>
<path fill="none" stroke="black" d="M797.311,-225.575C875.177,-214.474 1023.74,-193.294 1126.31,-178.671"/>
<polygon fill="black" stroke="black" points="1126.99,-182.11 1136.4,-177.233 1126,-175.18 1126.99,-182.11"/>
</g>
</g>
</svg>
