<?xml version="1.0" encoding="UTF-8" standalone="no"?>
<!DOCTYPE svg PUBLIC "-//W3C//DTD SVG 1.1//EN"
 "http://www.w3.org/Graphics/SVG/1.1/DTD/svg11.dtd">
<!-- Generated by graphviz version 2.38.0 (20140413.2041)
 -->
<!-- Title: %3 Pages: 1 -->
<svg width="1582pt" height="476pt"
 viewBox="0.00 0.00 1582.09 476.00" xmlns="http://www.w3.org/2000/svg" xmlns:xlink="http://www.w3.org/1999/xlink">
<g id="graph0" class="graph" transform="scale(1 1) rotate(0) translate(4 472)">
<title>%3</title>
<polygon fill="white" stroke="none" points="-4,4 -4,-472 1578.09,-472 1578.09,4 -4,4"/>
<!-- [root] aws_instance.east_backend -->
<g id="node1" class="node"><title>[root] aws_instance.east_backend</title>
<polygon fill="none" stroke="black" points="1043,-180 828,-180 828,-144 1043,-144 1043,-180"/>
<text text-anchor="middle" x="935.5" y="-158.3" font-family="Times,serif" font-size="14.00">aws_instance.east_backend</text>
</g>
<!-- [root] local.westfrontend_name -->
<g id="node9" class="node"><title>[root] local.westfrontend_name</title>
<polygon fill="none" stroke="black" points="851,-108 660,-108 660,-72 857,-72 857,-102 851,-108"/>
<polyline fill="none" stroke="black" points="851,-108 851,-102 "/>
<polyline fill="none" stroke="black" points="857,-102 851,-102 "/>
<text text-anchor="middle" x="758.5" y="-86.3" font-family="Times,serif" font-size="14.00">local.westfrontend_name</text>
</g>
<!-- [root] aws_instance.east_backend&#45;&gt;[root] local.westfrontend_name -->
<g id="edge1" class="edge"><title>[root] aws_instance.east_backend&#45;&gt;[root] local.westfrontend_name</title>
<path fill="none" stroke="black" d="M892.201,-143.876C867.789,-134.222 837.104,-122.087 811.29,-111.878"/>
<polygon fill="black" stroke="black" points="812.245,-108.491 801.658,-108.068 809.67,-115.001 812.245,-108.491"/>
</g>
<!-- [root] provider.aws -->
<g id="node12" class="node"><title>[root] provider.aws</title>
<polygon fill="none" stroke="black" points="1113.5,-108 1014.46,-90 1113.5,-72 1212.54,-90 1113.5,-108"/>
<text text-anchor="middle" x="1113.5" y="-86.3" font-family="Times,serif" font-size="14.00">provider.aws</text>
</g>
<!-- [root] aws_instance.east_backend&#45;&gt;[root] provider.aws -->
<g id="edge2" class="edge"><title>[root] aws_instance.east_backend&#45;&gt;[root] provider.aws</title>
<path fill="none" stroke="black" d="M979.044,-143.876C1008.14,-132.435 1046.09,-117.51 1074.25,-106.435"/>
<polygon fill="black" stroke="black" points="1075.75,-109.608 1083.77,-102.691 1073.19,-103.093 1075.75,-109.608"/>
</g>
<!-- [root] var.zones_east -->
<g id="node17" class="node"><title>[root] var.zones_east</title>
<polygon fill="none" stroke="black" points="990,-108 875,-108 875,-72 996,-72 996,-102 990,-108"/>
<polyline fill="none" stroke="black" points="990,-108 990,-102 "/>
<polyline fill="none" stroke="black" points="996,-102 990,-102 "/>
<text text-anchor="middle" x="935.5" y="-86.3" font-family="Times,serif" font-size="14.00">var.zones_east</text>
</g>
<!-- [root] aws_instance.east_backend&#45;&gt;[root] var.zones_east -->
<g id="edge3" class="edge"><title>[root] aws_instance.east_backend&#45;&gt;[root] var.zones_east</title>
<path fill="none" stroke="black" d="M935.5,-143.697C935.5,-135.983 935.5,-126.712 935.5,-118.112"/>
<polygon fill="black" stroke="black" points="939,-118.104 935.5,-108.104 932,-118.104 939,-118.104"/>
</g>
<!-- [root] aws_instance.east_frontend -->
<g id="node2" class="node"><title>[root] aws_instance.east_frontend</title>
<polygon fill="none" stroke="black" points="1418.5,-252 1202.5,-252 1202.5,-216 1418.5,-216 1418.5,-252"/>
<text text-anchor="middle" x="1310.5" y="-230.3" font-family="Times,serif" font-size="14.00">aws_instance.east_frontend</text>
</g>
<!-- [root] aws_instance.east_frontend&#45;&gt;[root] aws_instance.east_backend -->
<g id="edge4" class="edge"><title>[root] aws_instance.east_frontend&#45;&gt;[root] aws_instance.east_backend</title>
<path fill="none" stroke="black" d="M1219.24,-215.966C1164.13,-205.677 1093.78,-192.547 1036.93,-181.933"/>
<polygon fill="black" stroke="black" points="1037.31,-178.445 1026.84,-180.05 1036.03,-185.326 1037.31,-178.445"/>
</g>
<!-- [root] local.default_frontend_name -->
<g id="node5" class="node"><title>[root] local.default_frontend_name</title>
<polygon fill="none" stroke="black" points="1401,-180 1186,-180 1186,-144 1407,-144 1407,-174 1401,-180"/>
<polyline fill="none" stroke="black" points="1401,-180 1401,-174 "/>
<polyline fill="none" stroke="black" points="1407,-174 1401,-174 "/>
<text text-anchor="middle" x="1296.5" y="-158.3" font-family="Times,serif" font-size="14.00">local.default_frontend_name</text>
</g>
<!-- [root] aws_instance.east_frontend&#45;&gt;[root] local.default_frontend_name -->
<g id="edge5" class="edge"><title>[root] aws_instance.east_frontend&#45;&gt;[root] local.default_frontend_name</title>
<path fill="none" stroke="black" d="M1307.04,-215.697C1305.5,-207.983 1303.64,-198.712 1301.92,-190.112"/>
<polygon fill="black" stroke="black" points="1305.31,-189.224 1299.92,-180.104 1298.45,-190.597 1305.31,-189.224"/>
</g>
<!-- [root] aws_instance.west_backend -->
<g id="node3" class="node"><title>[root] aws_instance.west_backend</title>
<polygon fill="none" stroke="black" points="448,-252 229,-252 229,-216 448,-216 448,-252"/>
<text text-anchor="middle" x="338.5" y="-230.3" font-family="Times,serif" font-size="14.00">aws_instance.west_backend</text>
</g>
<!-- [root] local.westbackend_name -->
<g id="node8" class="node"><title>[root] local.westbackend_name</title>
<polygon fill="none" stroke="black" points="487.5,-108 297.5,-108 297.5,-72 493.5,-72 493.5,-102 487.5,-108"/>
<polyline fill="none" stroke="black" points="487.5,-108 487.5,-102 "/>
<polyline fill="none" stroke="black" points="493.5,-102 487.5,-102 "/>
<text text-anchor="middle" x="395.5" y="-86.3" font-family="Times,serif" font-size="14.00">local.westbackend_name</text>
</g>
<!-- [root] aws_instance.west_backend&#45;&gt;[root] local.westbackend_name -->
<g id="edge6" class="edge"><title>[root] aws_instance.west_backend&#45;&gt;[root] local.westbackend_name</title>
<path fill="none" stroke="black" d="M302.473,-215.815C288.581,-207.165 274.204,-195.237 266.5,-180 259.281,-165.721 257.592,-157.291 266.5,-144 275.766,-130.176 289.355,-119.954 304.279,-112.397"/>
<polygon fill="black" stroke="black" points="306.113,-115.406 313.717,-108.028 303.172,-109.053 306.113,-115.406"/>
</g>
<!-- [root] provider.aws.us&#45;west&#45;1 -->
<g id="node13" class="node"><title>[root] provider.aws.us&#45;west&#45;1</title>
<polygon fill="none" stroke="black" points="585.5,-180 419.265,-162 585.5,-144 751.735,-162 585.5,-180"/>
<text text-anchor="middle" x="585.5" y="-158.3" font-family="Times,serif" font-size="14.00">provider.aws.us&#45;west&#45;1</text>
</g>
<!-- [root] aws_instance.west_backend&#45;&gt;[root] provider.aws.us&#45;west&#45;1 -->
<g id="edge7" class="edge"><title>[root] aws_instance.west_backend&#45;&gt;[root] provider.aws.us&#45;west&#45;1</title>
<path fill="none" stroke="black" d="M398.607,-215.966C439.416,-204.4 492.895,-189.244 532.186,-178.109"/>
<polygon fill="black" stroke="black" points="533.187,-181.464 541.853,-175.369 531.278,-174.729 533.187,-181.464"/>
</g>
<!-- [root] var.multi&#45;region&#45;deployment -->
<g id="node16" class="node"><title>[root] var.multi&#45;region&#45;deployment</title>
<polygon fill="none" stroke="black" points="213,-180 -1.42109e-14,-180 -1.42109e-14,-144 219,-144 219,-174 213,-180"/>
<polyline fill="none" stroke="black" points="213,-180 213,-174 "/>
<polyline fill="none" stroke="black" points="219,-174 213,-174 "/>
<text text-anchor="middle" x="109.5" y="-158.3" font-family="Times,serif" font-size="14.00">var.multi&#45;region&#45;deployment</text>
</g>
<!-- [root] aws_instance.west_backend&#45;&gt;[root] var.multi&#45;region&#45;deployment -->
<g id="edge8" class="edge"><title>[root] aws_instance.west_backend&#45;&gt;[root] var.multi&#45;region&#45;deployment</title>
<path fill="none" stroke="black" d="M282.773,-215.966C250.359,-206.057 209.324,-193.514 175.325,-183.121"/>
<polygon fill="black" stroke="black" points="176.063,-179.687 165.477,-180.111 174.017,-186.381 176.063,-179.687"/>
</g>
<!-- [root] var.zones_west -->
<g id="node18" class="node"><title>[root] var.zones_west</title>
<polygon fill="none" stroke="black" points="395,-180 276,-180 276,-144 401,-144 401,-174 395,-180"/>
<polyline fill="none" stroke="black" points="395,-180 395,-174 "/>
<polyline fill="none" stroke="black" points="401,-174 395,-174 "/>
<text text-anchor="middle" x="338.5" y="-158.3" font-family="Times,serif" font-size="14.00">var.zones_west</text>
</g>
<!-- [root] aws_instance.west_backend&#45;&gt;[root] var.zones_west -->
<g id="edge9" class="edge"><title>[root] aws_instance.west_backend&#45;&gt;[root] var.zones_west</title>
<path fill="none" stroke="black" d="M338.5,-215.697C338.5,-207.983 338.5,-198.712 338.5,-190.112"/>
<polygon fill="black" stroke="black" points="342,-190.104 338.5,-180.104 335,-190.104 342,-190.104"/>
</g>
<!-- [root] aws_instance.west_frontend -->
<g id="node4" class="node"><title>[root] aws_instance.west_frontend</title>
<polygon fill="none" stroke="black" points="772.5,-324 552.5,-324 552.5,-288 772.5,-288 772.5,-324"/>
<text text-anchor="middle" x="662.5" y="-302.3" font-family="Times,serif" font-size="14.00">aws_instance.west_frontend</text>
</g>
<!-- [root] aws_instance.west_frontend&#45;&gt;[root] aws_instance.west_backend -->
<g id="edge10" class="edge"><title>[root] aws_instance.west_frontend&#45;&gt;[root] aws_instance.west_backend</title>
<path fill="none" stroke="black" d="M583.655,-287.966C536.427,-277.762 476.264,-264.764 427.357,-254.198"/>
<polygon fill="black" stroke="black" points="427.931,-250.741 417.417,-252.05 426.453,-257.583 427.931,-250.741"/>
</g>
<!-- [root] local.some_tags -->
<g id="node7" class="node"><title>[root] local.some_tags</title>
<polygon fill="none" stroke="black" points="800,-252 675,-252 675,-216 806,-216 806,-246 800,-252"/>
<polyline fill="none" stroke="black" points="800,-252 800,-246 "/>
<polyline fill="none" stroke="black" points="806,-246 800,-246 "/>
<text text-anchor="middle" x="740.5" y="-230.3" font-family="Times,serif" font-size="14.00">local.some_tags</text>
</g>
<!-- [root] aws_instance.west_frontend&#45;&gt;[root] local.some_tags -->
<g id="edge11" class="edge"><title>[root] aws_instance.west_frontend&#45;&gt;[root] local.some_tags</title>
<path fill="none" stroke="black" d="M681.781,-287.697C691.415,-279.05 703.229,-268.449 713.727,-259.027"/>
<polygon fill="black" stroke="black" points="716.336,-261.388 721.441,-252.104 711.661,-256.179 716.336,-261.388"/>
</g>
<!-- [root] var.env&#45;name -->
<g id="node14" class="node"><title>[root] var.env&#45;name</title>
<polygon fill="none" stroke="black" points="1343.5,-108 1237.5,-108 1237.5,-72 1349.5,-72 1349.5,-102 1343.5,-108"/>
<polyline fill="none" stroke="black" points="1343.5,-108 1343.5,-102 "/>
<polyline fill="none" stroke="black" points="1349.5,-102 1343.5,-102 "/>
<text text-anchor="middle" x="1293.5" y="-86.3" font-family="Times,serif" font-size="14.00">var.env&#45;name</text>
</g>
<!-- [root] local.default_frontend_name&#45;&gt;[root] var.env&#45;name -->
<g id="edge12" class="edge"><title>[root] local.default_frontend_name&#45;&gt;[root] var.env&#45;name</title>
<path fill="none" stroke="black" d="M1295.76,-143.697C1295.43,-135.983 1295.03,-126.712 1294.66,-118.112"/>
<polygon fill="black" stroke="black" points="1298.16,-117.945 1294.23,-108.104 1291.16,-118.245 1298.16,-117.945"/>
</g>
<!-- [root] local.defualt_backend_name -->
<g id="node6" class="node"><title>[root] local.defualt_backend_name</title>
<polygon fill="none" stroke="black" points="1178.5,-252 964.5,-252 964.5,-216 1184.5,-216 1184.5,-246 1178.5,-252"/>
<polyline fill="none" stroke="black" points="1178.5,-252 1178.5,-246 "/>
<polyline fill="none" stroke="black" points="1184.5,-246 1178.5,-246 "/>
<text text-anchor="middle" x="1074.5" y="-230.3" font-family="Times,serif" font-size="14.00">local.defualt_backend_name</text>
</g>
<!-- [root] local.defualt_backend_name&#45;&gt;[root] var.env&#45;name -->
<g id="edge13" class="edge"><title>[root] local.defualt_backend_name&#45;&gt;[root] var.env&#45;name</title>
<path fill="none" stroke="black" d="M1090.94,-215.905C1110.14,-196.632 1143.49,-165.225 1176.5,-144 1195.69,-131.663 1218.22,-120.723 1238.37,-112.033"/>
<polygon fill="black" stroke="black" points="1239.89,-115.192 1247.74,-108.077 1237.16,-108.743 1239.89,-115.192"/>
</g>
<!-- [root] local.some_tags&#45;&gt;[root] local.westfrontend_name -->
<g id="edge14" class="edge"><title>[root] local.some_tags&#45;&gt;[root] local.westfrontend_name</title>
<path fill="none" stroke="black" d="M748.806,-215.788C753.241,-205.634 758.241,-192.384 760.5,-180 764.221,-159.602 763.492,-136.142 761.956,-118.43"/>
<polygon fill="black" stroke="black" points="765.413,-117.822 760.928,-108.224 758.448,-118.524 765.413,-117.822"/>
</g>
<!-- [root] var.env&#45;name&#45;2 -->
<g id="node15" class="node"><title>[root] var.env&#45;name&#45;2</title>
<polygon fill="none" stroke="black" points="633,-36 514,-36 514,-0 639,-0 639,-30 633,-36"/>
<polyline fill="none" stroke="black" points="633,-36 633,-30 "/>
<polyline fill="none" stroke="black" points="639,-30 633,-30 "/>
<text text-anchor="middle" x="576.5" y="-14.3" font-family="Times,serif" font-size="14.00">var.env&#45;name&#45;2</text>
</g>
<!-- [root] local.westbackend_name&#45;&gt;[root] var.env&#45;name&#45;2 -->
<g id="edge15" class="edge"><title>[root] local.westbackend_name&#45;&gt;[root] var.env&#45;name&#45;2</title>
<path fill="none" stroke="black" d="M439.778,-71.8761C464.851,-62.1791 496.396,-49.9795 522.865,-39.7427"/>
<polygon fill="black" stroke="black" points="524.302,-42.9398 532.366,-36.0683 521.777,-36.411 524.302,-42.9398"/>
</g>
<!-- [root] local.westfrontend_name&#45;&gt;[root] var.env&#45;name&#45;2 -->
<g id="edge16" class="edge"><title>[root] local.westfrontend_name&#45;&gt;[root] var.env&#45;name&#45;2</title>
<path fill="none" stroke="black" d="M713.978,-71.8761C688.766,-62.1791 657.047,-49.9795 630.431,-39.7427"/>
<polygon fill="black" stroke="black" points="631.468,-36.3915 620.878,-36.0683 628.955,-42.9249 631.468,-36.3915"/>
</g>
<!-- [root] output.PublicIP_East_Backend -->
<g id="node10" class="node"><title>[root] output.PublicIP_East_Backend</title>
<polygon fill="none" stroke="black" points="1042,-324 809,-324 809,-288 1048,-288 1048,-318 1042,-324"/>
<polyline fill="none" stroke="black" points="1042,-324 1042,-318 "/>
<polyline fill="none" stroke="black" points="1048,-318 1042,-318 "/>
<text text-anchor="middle" x="928.5" y="-302.3" font-family="Times,serif" font-size="14.00">output.PublicIP_East_Backend</text>
</g>
<!-- [root] output.PublicIP_East_Backend&#45;&gt;[root] aws_instance.east_backend -->
<g id="edge21" class="edge"><title>[root] output.PublicIP_East_Backend&#45;&gt;[root] aws_instance.east_backend</title>
<path fill="none" stroke="black" d="M929.344,-287.871C930.537,-263.67 932.729,-219.211 934.15,-190.393"/>
<polygon fill="black" stroke="black" points="937.656,-190.349 934.653,-180.189 930.664,-190.005 937.656,-190.349"/>
</g>
<!-- [root] output.PublicIP_East_Frontend -->
<g id="node11" class="node"><title>[root] output.PublicIP_East_Frontend</title>
<polygon fill="none" stroke="black" points="1378.5,-324 1142.5,-324 1142.5,-288 1384.5,-288 1384.5,-318 1378.5,-324"/>
<polyline fill="none" stroke="black" points="1378.5,-324 1378.5,-318 "/>
<polyline fill="none" stroke="black" points="1384.5,-318 1378.5,-318 "/>
<text text-anchor="middle" x="1263.5" y="-302.3" font-family="Times,serif" font-size="14.00">output.PublicIP_East_Frontend</text>
</g>
<!-- [root] output.PublicIP_East_Frontend&#45;&gt;[root] aws_instance.east_frontend -->
<g id="edge22" class="edge"><title>[root] output.PublicIP_East_Frontend&#45;&gt;[root] aws_instance.east_frontend</title>
<path fill="none" stroke="black" d="M1275.12,-287.697C1280.64,-279.474 1287.35,-269.483 1293.43,-260.421"/>
<polygon fill="black" stroke="black" points="1296.35,-262.358 1299.02,-252.104 1290.54,-258.456 1296.35,-262.358"/>
</g>
<!-- [root] meta.count&#45;boundary (EachMode fixup) -->
<g id="node19" class="node"><title>[root] meta.count&#45;boundary (EachMode fixup)</title>
<ellipse fill="none" stroke="black" cx="1066.5" cy="-378" rx="224.46" ry="18"/>
<text text-anchor="middle" x="1066.5" y="-374.3" font-family="Times,serif" font-size="14.00">[root] meta.count&#45;boundary (EachMode fixup)</text>
</g>
<!-- [root] meta.count&#45;boundary (EachMode fixup)&#45;&gt;[root] aws_instance.west_frontend -->
<g id="edge17" class="edge"><title>[root] meta.count&#45;boundary (EachMode fixup)&#45;&gt;[root] aws_instance.west_frontend</title>
<path fill="none" stroke="black" d="M976.839,-361.465C916.048,-350.932 835.352,-336.95 770.944,-325.79"/>
<polygon fill="black" stroke="black" points="771.203,-322.283 760.752,-324.024 770.008,-329.18 771.203,-322.283"/>
</g>
<!-- [root] meta.count&#45;boundary (EachMode fixup)&#45;&gt;[root] local.defualt_backend_name -->
<g id="edge18" class="edge"><title>[root] meta.count&#45;boundary (EachMode fixup)&#45;&gt;[root] local.defualt_backend_name</title>
<path fill="none" stroke="black" d="M1067.46,-359.871C1068.83,-335.67 1071.33,-291.211 1072.96,-262.393"/>
<polygon fill="black" stroke="black" points="1076.46,-262.37 1073.53,-252.189 1069.47,-261.977 1076.46,-262.37"/>
</g>
<!-- [root] meta.count&#45;boundary (EachMode fixup)&#45;&gt;[root] output.PublicIP_East_Backend -->
<g id="edge19" class="edge"><title>[root] meta.count&#45;boundary (EachMode fixup)&#45;&gt;[root] output.PublicIP_East_Backend</title>
<path fill="none" stroke="black" d="M1033.09,-360.055C1014.5,-350.624 991.16,-338.784 971.247,-328.683"/>
<polygon fill="black" stroke="black" points="972.578,-325.434 962.077,-324.032 969.412,-331.677 972.578,-325.434"/>
</g>
<!-- [root] meta.count&#45;boundary (EachMode fixup)&#45;&gt;[root] output.PublicIP_East_Frontend -->
<g id="edge20" class="edge"><title>[root] meta.count&#45;boundary (EachMode fixup)&#45;&gt;[root] output.PublicIP_East_Frontend</title>
<path fill="none" stroke="black" d="M1113.44,-360.322C1141.15,-350.476 1176.44,-337.936 1205.83,-327.491"/>
<polygon fill="black" stroke="black" points="1207.3,-330.683 1215.55,-324.036 1204.96,-324.087 1207.3,-330.683"/>
</g>
<!-- [root] provider.aws (close) -->
<g id="node20" class="node"><title>[root] provider.aws (close)</title>
<ellipse fill="none" stroke="black" cx="1441.5" cy="-378" rx="132.677" ry="18"/>
<text text-anchor="middle" x="1441.5" y="-374.3" font-family="Times,serif" font-size="14.00">[root] provider.aws (close)</text>
</g>
<!-- [root] provider.aws (close)&#45;&gt;[root] aws_instance.east_frontend -->
<g id="edge23" class="edge"><title>[root] provider.aws (close)&#45;&gt;[root] aws_instance.east_frontend</title>
<path fill="none" stroke="black" d="M1435.36,-359.997C1427.8,-340.809 1413.45,-309.48 1393.5,-288 1382.43,-276.08 1368.12,-265.699 1354.51,-257.36"/>
<polygon fill="black" stroke="black" points="1356.1,-254.235 1345.71,-252.179 1352.55,-260.268 1356.1,-254.235"/>
</g>
<!-- [root] provider.aws.us&#45;west&#45;1 (close) -->
<g id="node21" class="node"><title>[root] provider.aws.us&#45;west&#45;1 (close)</title>
<ellipse fill="none" stroke="black" cx="644.5" cy="-378" rx="180.068" ry="18"/>
<text text-anchor="middle" x="644.5" y="-374.3" font-family="Times,serif" font-size="14.00">[root] provider.aws.us&#45;west&#45;1 (close)</text>
</g>
<!-- [root] provider.aws.us&#45;west&#45;1 (close)&#45;&gt;[root] aws_instance.west_frontend -->
<g id="edge24" class="edge"><title>[root] provider.aws.us&#45;west&#45;1 (close)&#45;&gt;[root] aws_instance.west_frontend</title>
<path fill="none" stroke="black" d="M648.949,-359.697C650.955,-351.898 653.369,-342.509 655.601,-333.829"/>
<polygon fill="black" stroke="black" points="659.001,-334.661 658.102,-324.104 652.222,-332.918 659.001,-334.661"/>
</g>
<!-- [root] root -->
<g id="node22" class="node"><title>[root] root</title>
<ellipse fill="none" stroke="black" cx="1066.5" cy="-450" rx="58.4896" ry="18"/>
<text text-anchor="middle" x="1066.5" y="-446.3" font-family="Times,serif" font-size="14.00">[root] root</text>
</g>
<!-- [root] root&#45;&gt;[root] meta.count&#45;boundary (EachMode fixup) -->
<g id="edge25" class="edge"><title>[root] root&#45;&gt;[root] meta.count&#45;boundary (EachMode fixup)</title>
<path fill="none" stroke="black" d="M1066.5,-431.697C1066.5,-423.983 1066.5,-414.712 1066.5,-406.112"/>
<polygon fill="black" stroke="black" points="1070,-406.104 1066.5,-396.104 1063,-406.104 1070,-406.104"/>
</g>
<!-- [root] root&#45;&gt;[root] provider.aws (close) -->
<g id="edge26" class="edge"><title>[root] root&#45;&gt;[root] provider.aws (close)</title>
<path fill="none" stroke="black" d="M1115.14,-439.92C1176.31,-428.503 1282.32,-408.713 1356.89,-394.794"/>
<polygon fill="black" stroke="black" points="1357.55,-398.231 1366.74,-392.956 1356.27,-391.35 1357.55,-398.231"/>
</g>
<!-- [root] root&#45;&gt;[root] provider.aws.us&#45;west&#45;1 (close) -->
<g id="edge27" class="edge"><title>[root] root&#45;&gt;[root] provider.aws.us&#45;west&#45;1 (close)</title>
<path fill="none" stroke="black" d="M1016.02,-440.626C948.885,-429.49 828.778,-409.567 743.306,-395.39"/>
<polygon fill="black" stroke="black" points="743.76,-391.917 733.322,-393.733 742.614,-398.823 743.76,-391.917"/>
</g>
</g>
</svg>
